<svg width="256" height="256" viewBox="0 0 256 256" fill="none" xmlns="http://www.w3.org/2000/svg">
<path d="M172.226 87C172.226 81.4772 176.703 77 182.226 77H204C209.523 77 214 81.4772 214 87V228C214 233.523 209.523 238 204 238H113C107.477 238 103 233.523 103 228V212.222C103 206.699 107.477 202.222 113 202.222H162.226C167.749 202.222 172.226 197.745 172.226 192.222V184.793C172.226 179.27 167.749 174.793 162.226 174.793H120.161C114.638 174.793 110.161 170.315 110.161 164.793V150.207C110.161 144.685 114.638 140.207 120.161 140.207H162.226C167.749 140.207 172.226 135.73 172.226 130.207V87Z" fill="white" stroke="white" stroke-width="6"/>
<path d="M84.7742 169C84.7742 174.523 80.297 179 74.7742 179H53C47.4772 179 43 174.523 43 169V28C43 22.4771 47.4771 18 53 18H144C149.523 18 154 22.4772 154 28V43.7778C154 49.3006 149.523 53.7778 144 53.7778H94.7742C89.2513 53.7778 84.7742 58.2549 84.7742 63.7778V71.2074C84.7742 76.7302 89.2513 81.2074 94.7742 81.2074H136.839C142.362 81.2074 146.839 85.6846 146.839 91.2074V105.793C146.839 111.315 142.362 115.793 136.839 115.793H94.7742C89.2513 115.793 84.7742 120.27 84.7742 125.793V169Z" fill="#1677FF" stroke="#1677FF" stroke-width="5"/>
<path d="M56 38C56 32.4772 60.4772 28 66 28H88C92.4183 28 96 31.5817 96 36V36C96 40.4183 92.4183 44 88 44H82C76.4772 44 72 48.4772 72 54V61.5C72 65.9183 68.4183 69.5 64 69.5V69.5C59.5817 69.5 56 65.9183 56 61.5V38Z" fill="#0762E1"/>
<path d="M201 218.5C201 224.023 196.523 228.5 191 228.5H169C164.582 228.5 161 224.918 161 220.5V220.5C161 216.082 164.582 212.5 169 212.5H175C180.523 212.5 185 208.023 185 202.5V195C185 190.582 188.582 187 193 187V187C197.418 187 201 190.582 201 195V218.5Z" fill="#C2C2C2"/>
</svg>
